<svg width="145" height="98" viewBox="0 0 145 98" fill="none" xmlns="http://www.w3.org/2000/svg">
<path d="M136.333 0C138.189 1.20714e-07 141 2.23857 141 4.99998C141 7.76143 138.189 10 136.333 10H133.667C131.811 10 129 7.76143 129 4.99998C129 2.23857 131.811 -1.20714e-07 133.667 0H136.333Z" fill="#130A5C"/>
<path d="M134.919 22C137.725 22 140 24.2386 140 27C140 29.7614 137.725 32 134.919 32H42V22H134.919Z" fill="#130A5C"/>
<path d="M139.919 44C142.725 44 145 46.2386 145 49C145 51.7614 142.725 54 139.919 54H47V44H139.919Z" fill="#130A5C"/>
<path d="M123.919 66C126.725 66 129 68.2386 129 71C129 73.7614 126.725 76 123.919 76H31V66H123.919Z" fill="#130A5C"/>
<path d="M98 75C90.4583 76.7506 90.4583 87.2493 98 89H52V75H98Z" fill="#130A5C"/>
<path d="M107 53C99.4583 54.7506 99.4583 65.2493 107 67H61V53H107Z" fill="#130A5C"/>
<path d="M100 9C92.4583 10.7506 92.4583 21.2493 100 23H54V9H100Z" fill="#130A5C"/>
<path d="M109 31C101.458 32.7506 101.458 43.2493 109 45H63V31H109Z" fill="#130A5C"/>
<path d="M0 49C0 76.062 21.938 98 49 98C76.062 98 98 76.062 98 49C98 21.938 76.062 0 49 0C21.938 0 0 21.938 0 49Z" fill="#130A5C"/>
<path fill-rule="evenodd" clip-rule="evenodd" d="M49 10H118.919C121.725 10 124 7.76143 124 5C124 2.23857 121.725 0 118.919 0H49V10Z" fill="#130A5C"/>
<path fill-rule="evenodd" clip-rule="evenodd" d="M49 98H107.919C110.725 98 113 95.7614 113 93C113 90.2386 110.725 88 107.919 88H49V98Z" fill="#130A5C"/>
<circle cx="49" cy="49" r="40" fill="#FFD03F"/>
<path d="M49.7104 88.9938C49.4741 88.9979 49.2373 89 49 89C38.6447 89 29.2084 85.065 22.1049 78.6087C22.2326 78.7248 22.361 78.84 22.4901 78.9544C29.7062 82.3908 39.0168 84.9699 51.5185 85.237C50.9803 86.5196 50.3768 87.7735 49.7104 88.9938Z" fill="#FFD03F"/>
<path d="M54.5941 88.6119C58.013 88.1335 61.2934 87.2228 64.3783 85.937C69.24 74.6634 74.0239 55.7343 64.2 35.7407C61 38.3037 58.1259 42.037 56.0667 47.3852L56.5111 48.7778C61.9636 66.8517 58.877 80.0521 54.8817 88.5706C54.7859 88.5847 54.69 88.5985 54.5941 88.6119Z" fill="#FFD03F"/>
<path d="M86.3748 63.2825C88.0709 58.8468 89 54.0319 89 49C89 42.3504 87.3774 36.0798 84.5066 30.5625C83.9382 30.4889 83.3078 30.419 82.5555 30.3778C87.6139 39.529 88.7533 50.7646 86.3748 63.2825Z" fill="#FFD03F"/>
<path d="M81.6739 25.9201C79.5825 22.9649 77.1004 20.3058 74.3026 18.0182C64.8938 17.1062 45.9188 18.8118 36.8815 44.837C41.71 45.8584 46.6278 46.3993 51.563 46.4519C54.4667 38.4963 58.9555 33.5333 63.8148 30.4815C63.8416 30.4726 63.863 30.4528 63.8856 30.4321C63.9004 30.4184 63.9157 30.4044 63.9333 30.3926L63.9926 30.3778C70.1638 26.5748 76.8458 25.8238 81.6739 25.9201Z" fill="#FFD03F"/>
<path d="M9.05347 46.9139C9.3069 41.9812 10.4539 37.2846 12.3358 32.983C12.3317 32.9923 12.3276 33.0017 12.3235 33.011C13.2579 35.0915 14.5271 37.293 16.6593 39.5185C23.8296 47 35.8889 50.8519 52.437 51.0296C53.8889 56.0815 54.6296 60.7333 54.8518 64.9556C29.0343 65.8828 15.6849 55.5321 9.05347 46.9139Z" fill="#FFD03F"/>
<path d="M15.1237 27.7206C20.7121 18.8427 29.6937 12.3159 40.2487 9.96023C30.2305 15.3334 22.5489 24.2635 18.7481 35.0296C16.9789 32.9096 15.7386 30.4044 15.1237 27.7206Z" fill="#FFD03F"/>
<path d="M70.4627 82.7603C73.228 80.9986 75.7623 78.9065 78.01 76.5395C83.2348 63.026 86.7162 45.0904 77.4296 30.6148C77.4107 30.5958 77.4038 30.5707 77.3975 30.5474C77.3939 30.5343 77.3905 30.5217 77.3852 30.5111C74.4518 30.8222 71.1778 31.6074 68.0074 33.2519C77.5491 52.2199 74.8067 70.3326 70.4627 82.7603Z" fill="#0095FF"/>
<path d="M67.6061 13.5816C56.2027 14.4564 40.5051 20.2453 32.4963 43.6667C28.7896 42.5496 25.3126 40.7785 22.2296 38.437C22.3515 38.2625 22.4511 38.0734 22.5259 37.8741C29.4363 16.9239 46.8754 10.9641 54.2957 9.34747C59.0461 9.97582 63.5335 11.4378 67.6061 13.5816Z" fill="#0095FF"/>
<path d="M53.0296 80.9852C32.5785 80.4404 20.6629 74.0998 13.7182 67.8632C11.4226 63.5786 9.88473 58.8272 9.28363 53.7882C17.1288 61.735 30.2677 69.5333 51.7852 69.5333C52.5405 69.5333 53.3213 69.5083 54.1016 69.4833C54.3619 69.475 54.6222 69.4667 54.8815 69.4593C54.7551 73.3642 54.1328 77.2372 53.0296 80.9852Z" fill="#0095FF"/>
<path d="M81.6739 25.9201C76.8458 25.8238 70.1638 26.5748 63.9926 30.3778L63.9333 30.3926C63.9157 30.4044 63.9004 30.4184 63.8856 30.4321C63.863 30.4528 63.8416 30.4726 63.8148 30.4815C58.9555 33.5333 54.4667 38.4963 51.563 46.4519C46.6278 46.3993 41.71 45.8584 36.8815 44.837C45.9188 18.8118 64.8938 17.1062 74.3026 18.0182C72.233 16.3259 69.9907 14.8369 67.6061 13.5816C56.2027 14.4564 40.5051 20.2453 32.4963 43.6667C28.7896 42.5496 25.3126 40.7785 22.2296 38.437C22.3515 38.2625 22.4511 38.0734 22.5259 37.8741C29.4363 16.9239 46.8754 10.9641 54.2957 9.34747C52.563 9.11829 50.7953 9 49 9C45.9939 9 43.0653 9.33161 40.2487 9.96023C30.2305 15.3334 22.5489 24.2635 18.7481 35.0296C16.9789 32.9096 15.7386 30.4044 15.1237 27.7206C14.0642 29.4037 13.1267 31.1713 12.3235 33.011C13.2579 35.0915 14.5271 37.293 16.6593 39.5185C23.8296 47 35.8889 50.8519 52.437 51.0296C53.8889 56.0815 54.6296 60.7333 54.8518 64.9556C29.0343 65.8828 15.6849 55.5321 9.05347 46.9139C9.01797 47.6048 9 48.3003 9 49C9 50.6204 9.09635 52.2182 9.28363 53.7882C17.1288 61.735 30.2677 69.5333 51.7852 69.5333C52.5405 69.5333 53.3213 69.5083 54.1016 69.4833C54.3619 69.475 54.6222 69.4667 54.8815 69.4593C54.7551 73.3642 54.1328 77.2372 53.0296 80.9852C32.5785 80.4404 20.6629 74.0998 13.7182 67.8632C15.9697 72.0656 18.95 75.8189 22.4901 78.9544C29.7062 82.3908 39.0168 84.9699 51.5185 85.237C50.9803 86.5196 50.3768 87.7735 49.7104 88.9938C51.464 88.9633 53.1901 88.8199 54.8817 88.5706C58.877 80.0521 61.9636 66.8517 56.5111 48.7778L56.0667 47.3852C58.1259 42.037 61 38.3037 64.2 35.7407C74.0239 55.7343 69.24 74.6634 64.3783 85.937C66.5056 85.0503 68.54 83.9852 70.4627 82.7603C74.8067 70.3326 77.5491 52.2199 68.0074 33.2519C71.1778 31.6074 74.4518 30.8222 77.3852 30.5111C77.3905 30.5217 77.3939 30.5343 77.3975 30.5474C77.4038 30.5707 77.4107 30.5958 77.4296 30.6148C86.7162 45.0904 83.2348 63.026 78.01 76.5395C81.6094 72.7491 84.4738 68.254 86.3748 63.2825C88.7533 50.7646 87.6139 39.529 82.5555 30.3778C83.3078 30.419 83.9382 30.4889 84.5066 30.5625C83.6662 28.9474 82.7188 27.3968 81.6739 25.9201Z" fill="#FFAD1F"/>
</svg>
